<?xml version="1.0" encoding="UTF-8" standalone="no"?><!DOCTYPE svg PUBLIC "-//W3C//DTD SVG 1.1//EN" "http://www.w3.org/Graphics/SVG/1.1/DTD/svg11.dtd"><svg width="100%" height="100%" viewBox="0 0 25 41" version="1.1" xmlns="http://www.w3.org/2000/svg" xmlns:xlink="http://www.w3.org/1999/xlink" xml:space="preserve" xmlns:serif="http://www.serif.com/" style="fill-rule:evenodd;clip-rule:evenodd;stroke-linejoin:round;stroke-miterlimit:2;"><path d="M11.215,40.173c-9.459,-16.868 -11.215,-18.599 -11.215,-24.798c0,-8.491 5.596,-15.375 12.5,-15.375c6.904,0 12.5,6.884 12.5,15.375c0,6.199 -1.756,7.93 -11.215,24.798c-0.621,1.103 -1.949,1.103 -2.57,0Z" style="fill:#424242;fill-rule:nonzero;"/><path d="M12.662,0.001l0.161,0.004l0.16,0.006l0.16,0.009l0.16,0.011l0.159,0.014l0.158,0.016l0.158,0.018l0.157,0.021l0.157,0.024l0.156,0.025l0.156,0.028l0.154,0.03l0.155,0.033l0.153,0.035l0.153,0.037l0.152,0.04l0.152,0.042l0.151,0.044l0.15,0.046l0.149,0.049l0.149,0.05l0.148,0.053l0.147,0.055l0.147,0.057l0.145,0.06l0.145,0.061l0.144,0.064l0.143,0.066l0.142,0.067l0.142,0.07l0.141,0.072l0.139,0.074l0.139,0.076l0.138,0.078l0.137,0.08l0.136,0.082l0.136,0.084l0.134,0.086l0.133,0.088l0.133,0.089l0.131,0.092l0.13,0.094l0.13,0.095l0.128,0.097l0.127,0.099l0.127,0.101l0.125,0.103l0.124,0.104l0.123,0.107l0.122,0.108l0.121,0.109l0.12,0.112l0.118,0.113l0.118,0.115l0.116,0.117l0.115,0.118l0.114,0.12l0.113,0.122l0.112,0.123l0.11,0.125l0.109,0.127l0.108,0.128l0.107,0.129l0.105,0.131l0.104,0.133l0.103,0.134l0.102,0.136l0.1,0.137l0.099,0.139l0.097,0.14l0.097,0.142l0.094,0.143l0.094,0.145l0.092,0.146l0.091,0.147l0.089,0.149l0.088,0.15l0.086,0.151l0.085,0.153l0.084,0.154l0.082,0.155l0.08,0.157l0.079,0.157l0.078,0.16l0.076,0.16l0.074,0.162l0.073,0.162l0.072,0.164l0.07,0.165l0.068,0.167l0.066,0.167l0.065,0.169l0.064,0.17l0.062,0.17l0.06,0.172l0.058,0.173l0.057,0.174l0.055,0.175l0.054,0.177l0.051,0.177l0.05,0.178l0.048,0.179l0.047,0.18l0.045,0.181l0.043,0.182l0.041,0.183l0.039,0.184l0.038,0.184l0.036,0.186l0.034,0.186l0.032,0.187l0.03,0.188l0.029,0.189l0.026,0.19l0.025,0.191l0.023,0.191l0.021,0.192l0.018,0.193l0.017,0.193l0.015,0.194l0.014,0.195l0.011,0.196l0.009,0.196l0.007,0.197l0.005,0.197l0.003,0.198l0.001,0.199l-0.001,0.287l-0.004,0.282l-0.003,0.138l-0.004,0.137l-0.005,0.136l-0.005,0.135l-0.006,0.133l-0.007,0.132l-0.008,0.132l-0.008,0.13l-0.01,0.129l-0.01,0.128l-0.011,0.128l-0.012,0.127l-0.013,0.125l-0.014,0.126l-0.015,0.124l-0.015,0.124l-0.017,0.124l-0.018,0.123l-0.019,0.123l-0.019,0.122l-0.021,0.122l-0.022,0.122l-0.023,0.121l-0.024,0.122l-0.026,0.121l-0.026,0.122l-0.027,0.121l-0.029,0.122l-0.03,0.122l-0.031,0.122l-0.032,0.122l-0.034,0.122l-0.035,0.123l-0.036,0.124l-0.037,0.124l-0.039,0.124l-0.04,0.125l-0.041,0.126l-0.043,0.126l-0.044,0.127l-0.045,0.128l-0.047,0.129l-0.049,0.13l-0.049,0.131l-0.052,0.132l-0.052,0.133l-0.054,0.134l-0.056,0.135l-0.057,0.137l-0.059,0.138l-0.06,0.14l-0.062,0.14l-0.064,0.143l-0.065,0.144l-0.067,0.145l-0.068,0.147l-0.07,0.149l-0.072,0.151l-0.148,0.307l-0.156,0.315l-0.162,0.323l-0.17,0.332l-0.177,0.341l-0.185,0.351l-0.192,0.36l-0.2,0.371l-0.208,0.383l-0.216,0.393l-0.224,0.406l-0.232,0.417l-0.24,0.431l-0.25,0.443l-0.258,0.458l-0.542,0.957l-0.579,1.017l-0.617,1.081l-0.655,1.148l-0.695,1.219l-0.735,1.293l-0.778,1.371l-0.404,0.716l-0.416,0.736l-0.427,0.758l-0.437,0.78l-0.03,0.051l-0.031,0.049l-0.031,0.048l-0.033,0.046l-0.033,0.044l-0.034,0.043l-0.036,0.041l-0.036,0.04l-0.036,0.038l-0.038,0.036l-0.038,0.035l-0.039,0.033l-0.039,0.031l-0.04,0.03l-0.041,0.029l-0.041,0.026l-0.042,0.025l-0.042,0.024l-0.043,0.021l-0.043,0.021l-0.044,0.018l-0.044,0.017l-0.044,0.016l-0.044,0.013l-0.045,0.012l-0.045,0.011l-0.045,0.009l-0.046,0.007l-0.045,0.006l-0.046,0.004l-0.045,0.002l-0.046,0.001l-0.046,-0.001l-0.045,-0.002l-0.046,-0.004l-0.045,-0.006l-0.046,-0.007l-0.045,-0.009l-0.045,-0.011l-0.045,-0.012l-0.044,-0.013l-0.044,-0.016l-0.044,-0.017l-0.044,-0.018l-0.043,-0.021l-0.043,-0.021l-0.042,-0.024l-0.042,-0.025l-0.041,-0.026l-0.041,-0.029l-0.04,-0.03l-0.039,-0.031l-0.039,-0.033l-0.038,-0.035l-0.038,-0.036l-0.036,-0.038l-0.036,-0.04l-0.036,-0.041l-0.034,-0.043l-0.033,-0.044l-0.033,-0.046l-0.031,-0.048l-0.031,-0.049l-0.03,-0.051l-0.437,-0.78l-0.427,-0.758l-0.416,-0.736l-0.404,-0.716l-0.778,-1.371l-0.735,-1.293l-0.695,-1.219l-0.655,-1.148l-0.617,-1.081l-0.579,-1.017l-0.542,-0.957l-0.258,-0.458l-0.25,-0.443l-0.24,-0.431l-0.232,-0.417l-0.224,-0.406l-0.216,-0.393l-0.208,-0.383l-0.2,-0.371l-0.192,-0.36l-0.185,-0.351l-0.177,-0.341l-0.17,-0.332l-0.162,-0.323l-0.156,-0.315l-0.148,-0.307l-0.072,-0.151l-0.07,-0.149l-0.068,-0.147l-0.067,-0.145l-0.065,-0.144l-0.064,-0.143l-0.062,-0.14l-0.06,-0.14l-0.059,-0.138l-0.057,-0.137l-0.056,-0.135l-0.054,-0.134l-0.052,-0.133l-0.052,-0.132l-0.049,-0.131l-0.049,-0.13l-0.047,-0.129l-0.045,-0.128l-0.044,-0.127l-0.043,-0.126l-0.041,-0.126l-0.04,-0.125l-0.039,-0.124l-0.037,-0.124l-0.036,-0.124l-0.035,-0.123l-0.034,-0.122l-0.032,-0.122l-0.031,-0.122l-0.03,-0.122l-0.029,-0.122l-0.027,-0.121l-0.026,-0.122l-0.026,-0.121l-0.024,-0.122l-0.023,-0.121l-0.022,-0.122l-0.021,-0.122l-0.019,-0.122l-0.019,-0.123l-0.018,-0.123l-0.017,-0.124l-0.015,-0.124l-0.015,-0.124l-0.014,-0.126l-0.013,-0.125l-0.012,-0.127l-0.011,-0.128l-0.01,-0.128l-0.01,-0.129l-0.008,-0.13l-0.008,-0.132l-0.007,-0.132l-0.006,-0.133l-0.005,-0.135l-0.005,-0.136l-0.004,-0.137l-0.003,-0.138l-0.004,-0.282l-0.001,-0.287l0.001,-0.199l0.003,-0.198l0.005,-0.197l0.007,-0.197l0.009,-0.196l0.011,-0.196l0.014,-0.195l0.015,-0.194l0.017,-0.193l0.018,-0.193l0.021,-0.192l0.023,-0.191l0.025,-0.191l0.026,-0.19l0.029,-0.189l0.03,-0.188l0.032,-0.187l0.034,-0.186l0.036,-0.186l0.038,-0.184l0.039,-0.184l0.041,-0.183l0.043,-0.182l0.045,-0.181l0.047,-0.18l0.048,-0.179l0.05,-0.178l0.051,-0.177l0.054,-0.177l0.055,-0.175l0.057,-0.174l0.058,-0.173l0.06,-0.172l0.062,-0.17l0.064,-0.17l0.065,-0.169l0.066,-0.167l0.068,-0.167l0.07,-0.165l0.072,-0.164l0.073,-0.162l0.074,-0.162l0.076,-0.16l0.078,-0.16l0.079,-0.157l0.08,-0.157l0.082,-0.155l0.084,-0.154l0.085,-0.153l0.086,-0.151l0.088,-0.15l0.089,-0.149l0.091,-0.147l0.092,-0.146l0.094,-0.145l0.094,-0.143l0.097,-0.142l0.097,-0.14l0.099,-0.139l0.1,-0.137l0.102,-0.136l0.103,-0.134l0.104,-0.133l0.105,-0.131l0.107,-0.129l0.108,-0.128l0.109,-0.127l0.11,-0.125l0.112,-0.123l0.113,-0.122l0.114,-0.12l0.115,-0.118l0.116,-0.117l0.118,-0.115l0.118,-0.113l0.12,-0.112l0.121,-0.109l0.122,-0.108l0.123,-0.107l0.124,-0.104l0.125,-0.103l0.127,-0.101l0.127,-0.099l0.128,-0.097l0.13,-0.095l0.13,-0.094l0.131,-0.092l0.133,-0.089l0.133,-0.088l0.134,-0.086l0.136,-0.084l0.136,-0.082l0.137,-0.08l0.138,-0.078l0.139,-0.076l0.139,-0.074l0.141,-0.072l0.142,-0.07l0.142,-0.067l0.143,-0.066l0.144,-0.064l0.145,-0.061l0.145,-0.06l0.147,-0.057l0.147,-0.055l0.148,-0.053l0.149,-0.05l0.149,-0.049l0.15,-0.046l0.151,-0.044l0.152,-0.042l0.152,-0.04l0.153,-0.037l0.153,-0.035l0.155,-0.033l0.154,-0.03l0.156,-0.028l0.156,-0.025l0.157,-0.024l0.157,-0.021l0.158,-0.018l0.158,-0.016l0.159,-0.014l0.16,-0.011l0.16,-0.009l0.16,-0.006l0.161,-0.004l0.162,-0.001l0.162,0.001Zm-0.3,1.522l-0.137,0.003l-0.137,0.006l-0.137,0.007l-0.135,0.01l-0.136,0.011l-0.135,0.014l-0.134,0.016l-0.134,0.017l-0.134,0.02l-0.133,0.022l-0.133,0.024l-0.132,0.026l-0.131,0.028l-0.131,0.03l-0.131,0.031l-0.13,0.034l-0.129,0.036l-0.129,0.038l-0.129,0.039l-0.128,0.042l-0.127,0.043l-0.127,0.045l-0.126,0.048l-0.126,0.049l-0.125,0.051l-0.125,0.053l-0.124,0.055l-0.123,0.056l-0.123,0.059l-0.123,0.06l-0.121,0.062l-0.121,0.064l-0.121,0.066l-0.119,0.068l-0.119,0.069l-0.119,0.072l-0.117,0.073l-0.117,0.075l-0.117,0.076l-0.115,0.079l-0.115,0.08l-0.114,0.081l-0.114,0.084l-0.112,0.085l-0.112,0.087l-0.111,0.089l-0.11,0.09l-0.11,0.092l-0.108,0.094l-0.108,0.096l-0.107,0.097l-0.106,0.098l-0.105,0.101l-0.104,0.102l-0.103,0.103l-0.102,0.105l-0.102,0.107l-0.1,0.108l-0.099,0.11l-0.099,0.111l-0.097,0.113l-0.097,0.114l-0.095,0.116l-0.094,0.118l-0.093,0.119l-0.093,0.12l-0.091,0.122l-0.09,0.123l-0.088,0.125l-0.088,0.126l-0.087,0.127l-0.085,0.129l-0.084,0.13l-0.083,0.132l-0.082,0.133l-0.081,0.134l-0.079,0.135l-0.078,0.137l-0.077,0.138l-0.076,0.14l-0.074,0.141l-0.073,0.141l-0.072,0.144l-0.07,0.144l-0.069,0.146l-0.068,0.146l-0.066,0.148l-0.065,0.149l-0.063,0.151l-0.063,0.151l-0.06,0.152l-0.059,0.154l-0.058,0.155l-0.057,0.155l-0.054,0.157l-0.054,0.158l-0.052,0.159l-0.05,0.16l-0.049,0.161l-0.047,0.162l-0.046,0.163l-0.044,0.163l-0.042,0.165l-0.041,0.166l-0.04,0.166l-0.038,0.168l-0.036,0.168l-0.034,0.169l-0.033,0.17l-0.031,0.171l-0.03,0.172l-0.027,0.173l-0.027,0.173l-0.024,0.174l-0.023,0.175l-0.02,0.176l-0.02,0.176l-0.017,0.177l-0.016,0.178l-0.013,0.179l-0.012,0.179l-0.011,0.18l-0.008,0.18l-0.007,0.182l-0.004,0.181l-0.003,0.183l-0.001,0.183l0.001,0.273l0.004,0.268l0.003,0.128l0.003,0.129l0.005,0.127l0.005,0.125l0.005,0.124l0.007,0.122l0.007,0.121l0.008,0.12l0.008,0.119l0.01,0.117l0.01,0.116l0.011,0.115l0.011,0.114l0.013,0.113l0.013,0.113l0.014,0.111l0.015,0.111l0.016,0.11l0.017,0.11l0.018,0.109l0.018,0.109l0.02,0.108l0.02,0.109l0.022,0.108l0.022,0.108l0.024,0.108l0.024,0.108l0.026,0.109l0.027,0.108l0.027,0.109l0.029,0.109l0.03,0.11l0.031,0.11l0.033,0.111l0.034,0.112l0.034,0.112l0.037,0.113l0.037,0.114l0.039,0.115l0.04,0.116l0.042,0.118l0.043,0.118l0.044,0.119l0.046,0.121l0.048,0.122l0.048,0.124l0.051,0.125l0.052,0.126l0.054,0.128l0.055,0.13l0.057,0.131l0.058,0.133l0.06,0.135l0.062,0.137l0.064,0.139l0.065,0.14l0.067,0.143l0.068,0.143l0.144,0.297l0.15,0.304l0.158,0.314l0.165,0.323l0.173,0.333l0.181,0.343l0.189,0.355l0.196,0.365l0.206,0.377l0.213,0.389l0.222,0.402l0.23,0.414l0.239,0.428l0.248,0.441l0.257,0.454l0.541,0.955l0.578,1.016l0.616,1.08l0.655,1.148l0.695,1.22l0.737,1.294l0.778,1.373l0.405,0.717l0.417,0.738l0.427,0.759l0.396,0.705l0.396,-0.705l0.427,-0.759l0.417,-0.738l0.405,-0.717l0.778,-1.373l0.737,-1.294l0.695,-1.22l0.655,-1.148l0.616,-1.08l0.578,-1.016l0.541,-0.955l0.257,-0.454l0.248,-0.441l0.239,-0.428l0.23,-0.414l0.222,-0.402l0.213,-0.389l0.206,-0.377l0.196,-0.365l0.189,-0.355l0.181,-0.343l0.173,-0.333l0.165,-0.323l0.158,-0.314l0.15,-0.304l0.144,-0.297l0.068,-0.143l0.067,-0.143l0.065,-0.141l0.064,-0.138l0.062,-0.137l0.06,-0.135l0.058,-0.133l0.057,-0.131l0.055,-0.13l0.054,-0.128l0.052,-0.126l0.051,-0.125l0.048,-0.124l0.048,-0.122l0.046,-0.121l0.044,-0.119l0.043,-0.118l0.042,-0.118l0.04,-0.116l0.039,-0.115l0.037,-0.114l0.037,-0.113l0.034,-0.112l0.034,-0.112l0.033,-0.111l0.031,-0.11l0.03,-0.11l0.029,-0.109l0.027,-0.109l0.027,-0.108l0.026,-0.109l0.024,-0.108l0.024,-0.108l0.022,-0.108l0.022,-0.108l0.02,-0.109l0.02,-0.108l0.018,-0.109l0.018,-0.109l0.017,-0.11l0.016,-0.11l0.015,-0.111l0.014,-0.111l0.013,-0.113l0.013,-0.113l0.011,-0.114l0.011,-0.115l0.01,-0.116l0.01,-0.117l0.008,-0.119l0.008,-0.12l0.007,-0.121l0.007,-0.122l0.005,-0.124l0.005,-0.125l0.005,-0.127l0.003,-0.129l0.003,-0.128l0.004,-0.268l0.001,-0.273l-0.001,-0.183l-0.003,-0.183l-0.004,-0.181l-0.007,-0.182l-0.008,-0.18l-0.011,-0.18l-0.012,-0.179l-0.013,-0.179l-0.016,-0.178l-0.017,-0.177l-0.02,-0.176l-0.02,-0.176l-0.023,-0.175l-0.024,-0.174l-0.027,-0.173l-0.027,-0.173l-0.03,-0.172l-0.031,-0.171l-0.033,-0.17l-0.034,-0.169l-0.036,-0.168l-0.038,-0.168l-0.04,-0.166l-0.041,-0.166l-0.042,-0.165l-0.044,-0.163l-0.046,-0.163l-0.047,-0.162l-0.049,-0.161l-0.05,-0.16l-0.052,-0.159l-0.054,-0.158l-0.054,-0.157l-0.057,-0.155l-0.058,-0.155l-0.059,-0.154l-0.06,-0.152l-0.063,-0.151l-0.063,-0.151l-0.065,-0.149l-0.066,-0.148l-0.068,-0.146l-0.069,-0.146l-0.07,-0.144l-0.072,-0.144l-0.073,-0.141l-0.074,-0.141l-0.076,-0.14l-0.077,-0.138l-0.078,-0.137l-0.079,-0.135l-0.081,-0.134l-0.082,-0.133l-0.083,-0.132l-0.084,-0.13l-0.085,-0.129l-0.087,-0.127l-0.088,-0.126l-0.088,-0.125l-0.09,-0.123l-0.091,-0.122l-0.093,-0.12l-0.093,-0.119l-0.094,-0.118l-0.095,-0.116l-0.097,-0.114l-0.097,-0.113l-0.099,-0.111l-0.099,-0.11l-0.1,-0.108l-0.102,-0.107l-0.102,-0.105l-0.103,-0.103l-0.104,-0.102l-0.105,-0.101l-0.106,-0.098l-0.107,-0.097l-0.108,-0.096l-0.108,-0.094l-0.11,-0.092l-0.11,-0.09l-0.111,-0.089l-0.112,-0.087l-0.112,-0.085l-0.114,-0.084l-0.114,-0.081l-0.115,-0.08l-0.115,-0.079l-0.117,-0.076l-0.117,-0.075l-0.117,-0.073l-0.119,-0.072l-0.119,-0.069l-0.119,-0.068l-0.121,-0.066l-0.121,-0.064l-0.121,-0.062l-0.123,-0.06l-0.123,-0.059l-0.123,-0.056l-0.124,-0.055l-0.125,-0.053l-0.125,-0.051l-0.126,-0.049l-0.126,-0.048l-0.127,-0.045l-0.127,-0.043l-0.128,-0.042l-0.129,-0.039l-0.129,-0.038l-0.129,-0.036l-0.13,-0.034l-0.131,-0.031l-0.131,-0.03l-0.131,-0.028l-0.132,-0.026l-0.133,-0.024l-0.133,-0.022l-0.134,-0.02l-0.134,-0.017l-0.134,-0.016l-0.135,-0.014l-0.136,-0.011l-0.135,-0.01l-0.137,-0.007l-0.137,-0.006l-0.137,-0.003l-0.138,-0.001l-0.138,0.001Z" style="fill:#fff;"/><path d="M12.5,16.063c2.373,0 4.299,-1.925 4.299,-4.299c0,-2.373 -1.926,-4.299 -4.299,-4.299c-2.373,0 -4.299,1.926 -4.299,4.299c0,2.374 1.926,4.299 4.299,4.299Zm3.821,0.956l-1.645,0c-0.662,0.304 -1.4,0.477 -2.176,0.477c-0.776,0 -1.511,-0.173 -2.176,-0.477l-1.645,0c-2.111,0 -3.822,1.71 -3.822,3.821l0,0.478c0,0.791 0.642,1.433 1.433,1.433l12.42,0c0.791,0 1.433,-0.642 1.433,-1.433l0,-0.478c0,-2.111 -1.711,-3.821 -3.822,-3.821Z" style="fill:#fff;fill-rule:nonzero;"/></svg>